<?xml version="1.0" encoding="utf-8"?>
<!-- Generator: Adobe Illustrator 23.1.0, SVG Export Plug-In . SVG Version: 6.00 Build 0)  -->
<svg version="1.1" id="Layer_1" xmlns="http://www.w3.org/2000/svg" xmlns:xlink="http://www.w3.org/1999/xlink" x="0px" y="0px"
	 viewBox="0 0 281 269" style="enable-background:new 0 0 281 269;" xml:space="preserve">
<style type="text/css">
	.st0{fill:none;stroke:#D80333;stroke-width:3;stroke-miterlimit:10;}
</style>
<path class="st0" d="M186.17,180.55c8.27-11.21,12.4-24.75,12.4-40.6c0-15.76-4.13-29.27-12.4-40.53
	c-8.27-11.26-18.15-16.89-29.65-16.89h-71.2v93.51h10.44V92.96h60.76c8.6,0,15.97,4.57,22.11,13.7c6.14,9.14,9.21,20.23,9.21,33.28
	c0,12.96-3.07,24.02-9.21,33.21c-6.14,9.19-13.51,13.78-22.11,13.78H14v10.44h142.52C168.02,197.37,177.9,191.77,186.17,180.55z"/>
<path class="st0" d="M188.13,207.81c9.76-6.96,17.52-16.48,23.27-28.57c5.75-12.08,8.63-25.18,8.63-39.3
	c0-14.21-2.88-27.33-8.63-39.37c-5.75-12.04-13.51-21.53-23.27-28.49c-9.77-6.96-20.3-10.44-31.61-10.44H64.43v114.39h10.44V72.08
	h81.64c9.47,0,18.25,3.02,26.32,9.06c8.07,6.04,14.5,14.28,19.29,24.72c4.79,10.44,7.18,21.8,7.18,34.08
	c0,18.66-5.2,34.64-15.59,47.93c-10.39,13.29-22.79,19.94-37.2,19.94H14v10.44h142.52C167.82,218.25,178.36,214.77,188.13,207.81z"
	/>
<path class="st0" d="M198.71,225.87c13.05-8.85,23.44-20.9,31.18-36.18c7.73-15.27,11.6-31.85,11.6-49.74
	c0-17.88-3.87-34.46-11.6-49.74c-7.74-15.27-18.13-27.33-31.18-36.18c-13.05-8.85-27.12-13.27-42.2-13.27H43.55v135.27h10.44V51.2
	h102.52c13.15,0,25.42,3.97,36.83,11.89c11.41,7.93,20.49,18.73,27.26,32.41c6.77,13.68,10.15,28.49,10.15,44.45
	c0,16.05-3.39,30.89-10.15,44.52c-6.77,13.63-15.83,24.41-27.19,32.34c-11.36,7.93-23.66,11.89-36.91,11.89H14v10.44h142.52
	C171.59,239.14,185.66,234.71,198.71,225.87z"/>
<path class="st0" d="M248.38,79.77c-9.72-18.46-22.74-33.06-39.08-43.79c-16.34-10.73-33.93-16.1-52.78-16.1H22.67v156.15h10.44
	V30.32h123.41c12.66,0,24.89,2.9,36.69,8.7c11.79,5.8,21.99,13.61,30.6,23.42c8.6,9.81,15.49,21.49,20.66,35.02
	c5.17,13.54,7.76,27.7,7.76,42.49c0,14.79-2.59,28.98-7.76,42.56c-5.17,13.58-12.06,25.26-20.66,35.02
	c-8.61,9.77-18.8,17.55-30.6,23.35c-11.8,5.8-24.02,8.7-36.69,8.7H14v10.44h142.52c14.11,0,27.72-3.17,40.82-9.5
	c13.1-6.33,24.43-14.86,34.01-25.59c9.57-10.73,17.23-23.51,22.98-38.36c5.75-14.84,8.63-30.38,8.63-46.62
	C262.95,118.29,258.09,98.23,248.38,79.77z"/>
</svg>
