<?xml version="1.0" encoding="utf-8"?>
<!-- Generator: Adobe Illustrator 23.1.0, SVG Export Plug-In . SVG Version: 6.00 Build 0)  -->
<svg version="1.1" id="Layer_1" xmlns="http://www.w3.org/2000/svg" xmlns:xlink="http://www.w3.org/1999/xlink" x="0px" y="0px"
	 viewBox="0 0 1920 1080" style="enable-background:new 0 0 1920 1080;" xml:space="preserve">
<style type="text/css">
	.st0{fill:#E25589;stroke:#FFFFFF;stroke-miterlimit:10;}
	.st1{fill:#56A061;stroke:#FFFFFF;stroke-miterlimit:10;}
	.st2{fill:#EF4E00;stroke:#FFFFFF;stroke-miterlimit:10;}
	.st3{fill:#13A894;stroke:#FFFFFF;stroke-miterlimit:10;}
	.st4{fill:#F6BC50;stroke:#FFFFFF;stroke-miterlimit:10;}
	.st5{fill:#D80333;stroke:#FFFFFF;stroke-miterlimit:10;}
	.st6{fill:#FFFFFF;stroke:#FFFFFF;stroke-miterlimit:10;}
	.st7{fill:none;stroke:#FFFFFF;stroke-miterlimit:10;}
	.st8{fill:#9D00D4;stroke:#FFFFFF;stroke-miterlimit:10;}
	.st9{fill:#0097C3;stroke:#FFFFFF;stroke-miterlimit:10;}
</style>
<path class="st0" d="M772.78,397.3v117.29h-6.42V386.25h7.66l74.06,128.34h-7.4L772.78,397.3z M779.2,414.95l6.42,11.76v87.88h-6.42
	V414.95z M781.43,386.25h7.49l74.33,128.34h-7.49L781.43,386.25z M792.03,438.03l6.42,11.68v64.88h-6.42V438.03z M796.58,386.25
	h7.58l74.24,128.34h-7.66L796.58,386.25z M811.64,386.25h7.49l67.74,117.2v-117.2h6.42v128.34h-7.58L811.64,386.25z M867.61,462.81
	l-6.42-11.68v-64.88h6.42V462.81z M880.45,485l-6.42-10.87v-87.88h6.42V485z"/>
<path class="st1" d="M1046.05,451.31v63.28h-6.42v-63.28c0-12.12-2.82-22.95-8.47-32.49c-5.65-9.54-13.34-16.9-23.08-22.1
	c-9.75-5.2-20.62-7.8-32.62-7.8c-11.53,0-22.07,2.76-31.64,8.29c-9.57,5.53-17.08,13-22.55,22.42c-5.47,9.42-8.2,19.68-8.2,30.79
	c0,7.31,1.17,14.25,3.52,20.81c2.35,6.57,5.56,12.3,9.63,17.2c4.07,4.9,8.76,9.14,14.08,12.7c5.32,3.57,11.05,6.27,17.2,8.11
	c6.15,1.84,12.4,2.76,18.76,2.76c7.01,0,13.67-1.34,19.96-4.01v6.6c-6.6,2.32-13.37,3.48-20.32,3.48c-7.19,0-14.19-1.01-20.99-3.03
	c-6.8-2.02-13.1-5.01-18.89-8.96c-5.79-3.95-10.89-8.61-15.29-13.99c-4.4-5.38-7.84-11.66-10.34-18.85
	c-2.5-7.19-3.74-14.8-3.74-22.82c0-9.21,1.74-17.99,5.21-26.34c3.48-8.35,8.23-15.57,14.26-21.66c6.03-6.09,13.34-10.93,21.93-14.53
	c8.59-3.59,17.72-5.39,27.41-5.39c9.86,0,19.13,1.66,27.81,4.99c8.67,3.33,16.16,7.95,22.46,13.86c6.3,5.91,11.26,13.18,14.88,21.79
	C1044.23,431.77,1046.05,441.15,1046.05,451.31z M1033.21,451.31v63.28h-6.42v-63.28c0-9.8-2.24-18.49-6.73-26.07
	c-4.49-7.58-10.62-13.38-18.41-17.42c-7.78-4.04-16.52-6.06-26.2-6.06c-9.21,0-17.62,2.18-25.22,6.55
	c-7.61,4.37-13.56,10.26-17.87,17.69c-4.31,7.43-6.46,15.57-6.46,24.42c0,7.61,1.4,14.54,4.19,20.81
	c2.79,6.27,6.55,11.42,11.27,15.46c4.72,4.04,10.1,7.17,16.13,9.4c6.03,2.23,12.34,3.34,18.94,3.34c6.71,0,13.31-1.4,19.79-4.19
	v6.51c-6.77,2.56-13.43,3.83-19.96,3.83c-10.28,0-19.73-2.32-28.34-6.95c-8.62-4.63-15.51-11.2-20.68-19.7
	c-5.17-8.5-7.75-18-7.75-28.52c0-7.49,1.44-14.62,4.32-21.39c2.88-6.77,6.79-12.63,11.72-17.56c4.93-4.93,10.87-8.85,17.83-11.76
	c6.95-2.91,14.32-4.37,22.1-4.37c10.87,0,20.69,2.32,29.46,6.95c8.76,4.63,15.67,11.23,20.72,19.79
	C1030.68,430.64,1033.21,440.38,1033.21,451.31z M1020.38,451.31v63.28h-6.42v-63.28c0-11.23-3.6-20.16-10.78-26.78
	c-7.19-6.62-16.43-9.94-27.72-9.94c-10.46,0-19.19,3.48-26.2,10.43c-7.01,6.95-10.52,15.42-10.52,25.4c0,6.06,1.05,11.5,3.16,16.31
	c2.11,4.81,4.98,8.68,8.6,11.59c3.62,2.91,7.68,5.12,12.17,6.64c4.49,1.51,9.22,2.27,14.22,2.27c6.77,0,13.22-1.57,19.34-4.72v6.77
	c-6.42,2.67-12.89,4.01-19.43,4.01c-5.88,0-11.47-0.91-16.76-2.72c-5.29-1.81-10.01-4.46-14.17-7.93
	c-4.16-3.48-7.46-7.99-9.89-13.55c-2.44-5.56-3.65-11.78-3.65-18.67c0-11.7,4.14-21.67,12.43-29.9c8.29-8.23,18.52-12.34,30.7-12.34
	c8.56,0,16.22,1.74,22.99,5.21c6.77,3.48,12.12,8.51,16.04,15.11C1018.42,435.09,1020.38,442.7,1020.38,451.31z M1001.12,451.31
	c0-7.6-2.35-13.49-7.04-17.65c-4.69-4.16-10.9-6.24-18.63-6.24c-6.54,0-12.15,2.26-16.84,6.77c-4.69,4.52-7.04,9.92-7.04,16.22
	c0,3.57,0.47,6.76,1.43,9.58c0.95,2.82,2.24,5.17,3.88,7.04c1.63,1.87,3.58,3.42,5.84,4.63c2.26,1.22,4.62,2.09,7.09,2.63
	c2.46,0.53,5.1,0.91,7.89,0.8c11.93-0.44,18.68-4.26,24.27-7.59v6.42c-5.76,3.03-12.34,7.14-24.36,7.14c-4.28,0-8.3-0.58-12.08-1.74
	c-3.77-1.16-7.21-2.91-10.29-5.26c-3.09-2.35-5.54-5.56-7.35-9.63c-1.81-4.07-2.72-8.75-2.72-14.04c0-8.2,2.88-15.15,8.65-20.86
	c5.76-5.7,12.98-8.56,21.66-8.56c9.57,0,17.3,2.69,23.22,8.07c5.91,5.38,8.87,12.79,8.87,22.24v63.28h-6.42V451.31z"/>
<path class="st2" d="M1275.1,386.25h6.42v128.34h-6.42V386.25z M1287.93,386.25h6.42v128.34h-6.42V386.25z M1300.77,386.25h6.42
	v128.34h-6.42V386.25z M1313.6,386.25h6.42v128.34h-6.42V386.25z"/>
<g>
	<g>
		<rect x="1372.34" y="421.81" class="st3" width="6.42" height="92.78"/>
		<rect x="1359.5" y="421.81" class="st3" width="6.42" height="92.78"/>
		<rect x="1385.17" y="421.81" class="st3" width="6.42" height="92.78"/>
		<rect x="1333.84" y="399.09" class="st3" width="96.26" height="6.42"/>
		<rect x="1333.84" y="386.25" class="st3" width="96.26" height="6.42"/>
		<polygon class="st3" points="1333.84,418.34 1398.01,418.34 1398.01,514.59 1404.42,514.59 1404.42,418.34 1430.09,418.34 
			1430.09,411.92 1333.84,411.92 		"/>
	</g>
</g>
<path class="st4" d="M1450.59,514.59h-6.42V386.25h6.42V514.59z M1463.43,514.59h-6.42V386.25h6.42V514.59z M1476.26,514.59h-6.42
	V386.25h6.42V514.59z M1489.09,482.51h57.51v6.42h-57.51v6.42h57.51v6.42h-57.51v6.42h57.51v6.42h-63.93V386.25h63.93v6.42h-57.51
	v6.42h57.51v6.42h-57.51v6.42h57.51v6.42h-57.51v15.95h57.84v6.42h-57.84v6.42h57.84v6.42h-57.84v6.42h57.84v6.42h-57.84V482.51z"/>
<g>
	<g>
		<path class="st5" d="M584.86,465.75c5.08-6.89,7.62-15.21,7.62-24.96c0-9.68-2.54-17.99-7.62-24.91
			c-5.08-6.92-11.16-10.38-18.23-10.38h-43.76v57.47h6.42v-51.05h37.34c5.29,0,9.82,2.81,13.59,8.42
			c3.77,5.62,5.66,12.43,5.66,20.45c0,7.96-1.89,14.77-5.66,20.41c-3.77,5.65-8.3,8.47-13.59,8.47h-87.59v6.42h87.59
			C573.71,476.09,579.78,472.65,584.86,465.75z"/>
		<path class="st5" d="M586.07,482.51c6-4.28,10.77-10.13,14.3-17.56c3.53-7.43,5.3-15.48,5.3-24.15c0-8.73-1.77-16.8-5.3-24.2
			c-3.54-7.4-8.3-13.24-14.3-17.51c-6-4.28-12.48-6.42-19.43-6.42h-56.6v70.31h6.42v-63.89h50.18c5.82,0,11.21,1.86,16.18,5.57
			c4.96,3.71,8.91,8.78,11.85,15.2c2.94,6.42,4.41,13.4,4.41,20.94c0,11.47-3.19,21.29-9.58,29.46
			c-6.39,8.17-14.01,12.26-22.86,12.26h-87.59v6.42h87.59C573.59,488.93,580.06,486.79,586.07,482.51z"/>
		<path class="st5" d="M592.57,493.6c8.02-5.44,14.41-12.85,19.16-22.24c4.75-9.39,7.13-19.58,7.13-30.57
			c0-10.99-2.38-21.18-7.13-30.57c-4.75-9.39-11.14-16.8-19.16-22.24c-8.02-5.44-16.67-8.16-25.94-8.16h-69.43v83.14h6.42v-76.72
			h63.01c8.08,0,15.63,2.44,22.64,7.31c7.01,4.87,12.6,11.51,16.76,19.92c4.16,8.41,6.24,17.51,6.24,27.32
			c0,9.86-2.08,18.98-6.24,27.36c-4.16,8.38-9.73,15-16.71,19.88c-6.98,4.87-14.54,7.31-22.68,7.31h-87.59v6.42h87.59
			C575.91,501.76,584.55,499.04,592.57,493.6z"/>
		<path class="st5" d="M623.1,403.81c-5.97-11.35-13.98-20.32-24.02-26.92c-10.04-6.6-20.86-9.89-32.44-9.89h-82.26v95.97h6.42
			v-89.56h75.85c7.78,0,15.3,1.78,22.55,5.35c7.25,3.57,13.52,8.36,18.81,14.39c5.29,6.03,9.52,13.21,12.7,21.52
			c3.18,8.32,4.77,17.02,4.77,26.11s-1.59,17.81-4.77,26.16c-3.18,8.35-7.41,15.52-12.7,21.52c-5.29,6-11.56,10.78-18.81,14.35
			c-7.25,3.57-14.77,5.35-22.55,5.35h-87.59v6.42h87.59c8.67,0,17.04-1.95,25.09-5.84c8.05-3.89,15.02-9.14,20.9-15.73
			c5.88-6.6,10.59-14.45,14.13-23.57c3.53-9.12,5.3-18.67,5.3-28.65C632.05,427.49,629.07,415.16,623.1,403.81z"/>
	</g>
</g>
<rect x="1489.14" y="396.07" class="st6" width="3.25" height="111.08"/>
<g>
	<path class="st7" d="M1168.27,419.37c0.36-0.61,0.75-1.2,1.16-1.77c1.04-1.45,2.2-2.76,3.46-3.96"/>
	<path class="st7" d="M1169.69,407.93c-1.71,1.4-3.25,2.97-4.62,4.71"/>
	<path class="st7" d="M1156.62,402.88c1.67,1.34,3.2,2.82,4.6,4.43c1.4-1.61,2.93-3.09,4.6-4.43"/>
	<path class="st7" d="M1161.22,398.32"/>
	<path class="st8" d="M1122.71,404.77c-6.44,0.04-12.22,1.06-17.32,3.07c-5.2,2.05-9.4,5.3-12.61,9.76
		c-3.21,4.46-4.81,9.8-4.81,16.04v80.21h6.42v-80.21c0-7.55,2.66-13.18,7.98-16.89c5.28-3.68,12.12-5.54,20.54-5.57
		c-0.06,0-0.12,0-0.19,0V404.77z"/>
	<path class="st8" d="M1122.71,417.6c-14.6,0.09-21.91,5.43-21.91,16.04v80.21h6.42v-80.21c0-1.72,0.28-3.19,0.85-4.41
		c0.56-1.22,1.29-2.15,2.18-2.81c0.89-0.65,2.06-1.17,3.52-1.56c1.46-0.39,2.87-0.62,4.23-0.71c1.32-0.09,2.96-0.13,4.89-0.13
		c-0.06,0-0.12,0-0.19,0V417.6z"/>
	<path class="st8" d="M1123.08,391.92c-0.06,0-0.12,0-0.19,0C1122.96,391.93,1123.02,391.93,1123.08,391.92L1123.08,391.92z"/>
	<path class="st8" d="M1123.08,404.76c-0.06,0-0.12,0-0.19,0C1122.96,404.76,1123.02,404.77,1123.08,404.76L1123.08,404.76z"/>
	<path class="st8" d="M1123.08,417.59c-0.06,0-0.12,0-0.19,0C1122.96,417.6,1123.02,417.6,1123.08,417.59L1123.08,417.59z"/>
	<path class="st8" d="M1123.08,379.09c-0.06,0-0.12,0-0.19,0C1122.96,379.09,1123.02,379.1,1123.08,379.09L1123.08,379.09z"/>
	<path class="st8" d="M1122.71,379.1c-8.18,0.04-15.91,1.31-23.2,3.83c-7.4,2.56-13.85,6.15-19.34,10.78
		c-5.5,4.63-9.85,10.4-13.06,17.29c-3.21,6.89-4.81,14.44-4.81,22.64v80.21h6.42v-80.21c0-9.74,2.47-18.32,7.4-25.71
		c4.93-7.4,11.48-12.98,19.65-16.76c8.12-3.75,17.16-5.63,27.13-5.66c-0.06,0-0.12,0-0.19,0V379.1z"/>
	<path class="st8" d="M1122.71,391.93c-6.46,0.04-12.54,0.98-18.25,2.85c-5.82,1.9-10.9,4.59-15.24,8.07
		c-4.34,3.48-7.77,7.86-10.29,13.15c-2.53,5.29-3.79,11.17-3.79,17.65v80.21h6.42v-80.21c0-5.58,1.08-10.64,3.25-15.15
		c2.17-4.51,5.15-8.23,8.96-11.14c3.8-2.91,8.2-5.14,13.19-6.68c4.94-1.53,10.25-2.3,15.95-2.31c-0.06,0-0.12,0-0.19,0V391.93z"/>
	<path class="st8" d="M1140.09,422.12c-3.64-2.97-9.31-4.47-17.01-4.52v6.41c-0.06,0-0.12,0-0.19,0c1.94,0,3.57,0.05,4.89,0.13
		c1.37,0.09,2.78,0.33,4.23,0.71c1.46,0.39,2.63,0.91,3.52,1.56c0.89,0.65,1.62,1.59,2.18,2.81c0.57,1.22,0.85,2.69,0.85,4.41v80.21
		h0.37v-80.21C1138.95,429.64,1139.33,425.8,1140.09,422.12z"/>
	<path class="st8" d="M1122.71,391.92L1122.71,391.92c0.06,0.01,0.12,0,0.19,0C1122.83,391.93,1122.77,391.92,1122.71,391.92z"/>
	<path class="st8" d="M1122.71,404.76L1122.71,404.76c0.06,0.01,0.12,0,0.19,0C1122.83,404.76,1122.77,404.76,1122.71,404.76z"/>
	<path class="st8" d="M1122.71,379.09L1122.71,379.09c0.06,0.01,0.12,0,0.19,0C1122.83,379.09,1122.77,379.09,1122.71,379.09z"/>
	<path class="st8" d="M1154.17,419.37c-0.36-0.61-0.75-1.2-1.16-1.77c-1.04-1.45-2.2-2.76-3.46-3.96c-0.97,2.1-1.78,4.27-2.41,6.53
		c2.84,3.47,4.27,7.95,4.27,13.47v80.21h0.37v-80.21C1151.78,428.5,1152.59,423.75,1154.17,419.37z"/>
	<path class="st8" d="M1156.62,402.88c-1.38,1.58-2.67,3.25-3.86,5.04c0,0,0,0.01-0.01,0.01c1.71,1.4,3.25,2.97,4.62,4.71
		c1.14-1.92,2.42-3.69,3.85-5.33C1159.82,405.7,1158.29,404.22,1156.62,402.88z"/>
	<path class="st8" d="M1141.34,394.78c-5.71-1.86-11.8-2.81-18.25-2.85v6.41c-0.06,0-0.12,0-0.19,0c5.69,0.02,11.01,0.79,15.95,2.31
		c3.1,0.96,5.98,2.19,8.62,3.68c1.18-1.8,2.45-3.52,3.82-5.13C1148.25,397.43,1144.94,395.95,1141.34,394.78z"/>
	<path class="st8" d="M1122.71,417.59L1122.71,417.59c0.06,0,0.12,0,0.19,0C1122.83,417.6,1122.77,417.59,1122.71,417.59z"/>
	<path class="st8" d="M1161.22,390.36c-4.45-3.05-9.43-5.53-14.94-7.44c-7.29-2.52-15.02-3.79-23.2-3.83v6.41c-0.06,0-0.12,0-0.19,0
		c9.97,0.02,19.01,1.91,27.13,5.66c2.1,0.97,4.09,2.06,5.97,3.27c0.27-0.24,0.54-0.49,0.82-0.73
		C1158.22,392.52,1159.69,391.41,1161.22,390.36z"/>
	<path class="st8" d="M1144.38,409.76c-1.26-0.73-2.58-1.37-3.98-1.92c-5.1-2.01-10.87-3.03-17.32-3.07v6.41c-0.06,0-0.12,0-0.19,0
		c7.6,0.02,13.91,1.55,18.95,4.55c0.56-1.61,1.19-3.19,1.91-4.74C1143.96,410.58,1144.17,410.17,1144.38,409.76z"/>
	<path class="st8" d="M1123.08,417.6c-0.06,0-0.12,0-0.19,0c-0.06,0-0.12,0-0.19,0v6.41c0.07,0,0.12,0,0.19,0c0.06,0,0.12,0,0.19,0
		V417.6z"/>
	<path class="st8" d="M1123.08,404.77c-0.06,0-0.12,0-0.19,0c-0.06,0-0.12,0-0.19,0v6.41c0.06,0,0.12,0,0.19,0c0.06,0,0.12,0,0.19,0
		V404.77z"/>
	<path class="st8" d="M1123.08,391.93c-0.06,0-0.12,0-0.19,0c-0.06,0-0.12,0-0.19,0v6.41c0.06,0,0.12,0,0.19,0c0.06,0,0.12,0,0.19,0
		V391.93z"/>
	<path class="st8" d="M1123.08,379.1c-0.06,0-0.12,0-0.19,0c-0.06,0-0.12,0-0.19,0v6.41c0.06,0,0.12,0,0.19,0c0.06,0,0.12,0,0.19,0
		V379.1z"/>
	<path class="st8" d="M1161.22,407.31c1.42,1.64,2.7,3.42,3.85,5.33c1.36-1.74,2.9-3.31,4.62-4.71c0,0,0-0.01-0.01-0.01
		c-1.19-1.79-2.48-3.47-3.86-5.04C1164.15,404.22,1162.62,405.7,1161.22,407.31z"/>
	<path class="st8" d="M1199.36,379.1c-8.18,0.04-15.91,1.31-23.2,3.83c-5.51,1.9-10.48,4.38-14.94,7.44c1.53,1.05,3,2.16,4.4,3.35
		c0.28,0.24,0.54,0.49,0.82,0.73c1.89-1.21,3.88-2.3,5.97-3.27c8.12-3.75,17.16-5.63,27.13-5.66c-0.06,0-0.12,0-0.19,0V379.1z"/>
	<path class="st8" d="M1199.73,379.09c-0.06,0-0.12,0-0.19,0C1199.61,379.09,1199.67,379.1,1199.73,379.09L1199.73,379.09z"/>
	<path class="st8" d="M1169.43,417.59c-0.41,0.58-0.8,1.17-1.16,1.77c1.59,4.39,2.39,9.14,2.39,14.27v80.21h0.37v-80.21
		c0-5.51,1.43-10,4.27-13.47c-0.63-2.26-1.44-4.44-2.41-6.53C1171.64,414.83,1170.47,416.14,1169.43,417.59z"/>
	<path class="st8" d="M1199.73,404.76c-0.06,0-0.12,0-0.19,0C1199.61,404.76,1199.67,404.77,1199.73,404.76L1199.73,404.76z"/>
	<path class="st8" d="M1199.73,417.59c-0.06,0-0.12,0-0.19,0C1199.61,417.6,1199.67,417.6,1199.73,417.59L1199.73,417.59z"/>
	<path class="st8" d="M1183.49,513.85h0.37v-80.21c0-1.72,0.28-3.19,0.85-4.41c0.56-1.22,1.29-2.15,2.18-2.81
		c0.89-0.65,2.06-1.17,3.52-1.56c1.46-0.39,2.87-0.62,4.23-0.71c1.32-0.09,2.96-0.13,4.89-0.13c-0.06,0-0.12,0-0.19,0v-6.41
		c-7.7,0.05-13.37,1.55-17.01,4.52c0.76,3.68,1.15,7.52,1.15,11.52V513.85z"/>
	<path class="st8" d="M1183.6,400.66c4.94-1.53,10.25-2.3,15.95-2.31c-0.06,0-0.12,0-0.19,0v-6.41c-6.46,0.04-12.54,0.98-18.25,2.85
		c-3.6,1.18-6.92,2.66-9.95,4.43c1.38,1.61,2.65,3.32,3.82,5.13C1177.62,402.85,1180.5,401.62,1183.6,400.66z"/>
	<path class="st8" d="M1180.59,415.73c5.04-3.01,11.36-4.53,18.95-4.55c-0.06,0-0.12,0-0.19,0v-6.41
		c-6.44,0.04-12.22,1.06-17.32,3.07c-1.4,0.55-2.72,1.2-3.98,1.92c0.2,0.41,0.42,0.82,0.62,1.24
		C1179.4,412.54,1180.03,414.12,1180.59,415.73z"/>
	<path class="st8" d="M1199.73,391.92c-0.06,0-0.12,0-0.19,0C1199.61,391.93,1199.67,391.93,1199.73,391.92L1199.73,391.92z"/>
	<path class="st8" d="M1161.22,390.36c-1.53,1.05-3,2.16-4.4,3.35c-0.28,0.24-0.54,0.49-0.82,0.73c1.84,1.18,3.58,2.48,5.22,3.89
		c1.64-1.41,3.38-2.7,5.22-3.89c-0.27-0.24-0.54-0.49-0.82-0.73C1164.22,392.52,1162.75,391.41,1161.22,390.36z"/>
	<path class="st8" d="M1168.27,419.37c-2.43,4.08-3.65,8.84-3.65,14.27v80.21h6.04v-80.21
		C1170.66,428.5,1169.85,423.75,1168.27,419.37z"/>
	<path class="st8" d="M1165.07,412.64c-1.14-1.92-2.42-3.69-3.85-5.33c-1.42,1.64-2.7,3.42-3.85,5.33c1.38,1.77,2.59,3.71,3.62,5.84
		c0.08,0.17,0.15,0.35,0.23,0.52c0.08-0.17,0.15-0.35,0.23-0.52C1162.48,416.36,1163.68,414.42,1165.07,412.64z"/>
	<path class="st8" d="M1165.82,402.88c1.38,1.58,2.67,3.25,3.86,5.04c0,0,0,0.01,0.01,0.01c0.24-0.2,0.48-0.4,0.72-0.59
		c1.44-1.1,2.96-2.1,4.57-3.01c-1.18-1.8-2.45-3.52-3.82-5.13c-1.87,1.1-3.64,2.31-5.29,3.63
		C1165.85,402.86,1165.84,402.87,1165.82,402.88z"/>
	<path class="st8" d="M1177.45,433.64v80.21h6.04v-80.21c0-3.99-0.38-7.83-1.15-11.52C1179.08,424.78,1177.45,428.62,1177.45,433.64
		z"/>
	<path class="st8" d="M1144.38,409.76c-0.2,0.41-0.42,0.82-0.62,1.24c-0.72,1.55-1.35,3.12-1.91,4.74c0.54,0.32,1.07,0.66,1.58,1.01
		c1.43,1,2.66,2.14,3.71,3.42c0.63-2.26,1.44-4.44,2.41-6.53C1147.99,412.15,1146.27,410.85,1144.38,409.76z"/>
	<path class="st8" d="M1154.17,419.37c-1.59,4.39-2.39,9.14-2.39,14.27v80.21h6.04v-80.21
		C1157.83,428.2,1156.61,423.45,1154.17,419.37z"/>
	<path class="st8" d="M1175.3,420.17c1.05-1.28,2.28-2.42,3.71-3.42c0.51-0.36,1.04-0.69,1.58-1.01c-0.56-1.61-1.19-3.19-1.91-4.74
		c-0.2-0.42-0.41-0.83-0.62-1.24c-1.89,1.09-3.61,2.39-5.18,3.88C1173.86,415.73,1174.67,417.91,1175.3,420.17z"/>
	<path class="st8" d="M1151.29,399.21c-1.38,1.61-2.65,3.32-3.82,5.13c1.61,0.91,3.13,1.91,4.57,3.01c0.25,0.19,0.48,0.39,0.72,0.59
		c0,0,0-0.01,0.01-0.01c1.19-1.79,2.48-3.47,3.86-5.04c-0.02-0.01-0.03-0.03-0.05-0.04"/>
	<path class="st8" d="M1140.09,422.12c-0.76,3.68-1.15,7.52-1.15,11.52v80.21h6.04v-80.21
		C1144.99,428.62,1143.36,424.78,1140.09,422.12z"/>
	<path class="st8" d="M1199.36,404.76L1199.36,404.76c0.06,0.01,0.12,0,0.19,0C1199.48,404.76,1199.42,404.76,1199.36,404.76z"/>
	<path class="st8" d="M1199.36,391.92L1199.36,391.92c0.06,0.01,0.12,0,0.19,0C1199.48,391.93,1199.42,391.92,1199.36,391.92z"/>
	<path class="st8" d="M1199.36,417.59L1199.36,417.59c0.06,0,0.12,0,0.19,0C1199.48,417.6,1199.42,417.59,1199.36,417.59z"/>
	<path class="st8" d="M1199.55,398.35c5.69,0.02,11.01,0.79,15.95,2.31c4.99,1.55,9.39,3.77,13.19,6.68
		c3.8,2.91,6.79,6.63,8.96,11.14c2.17,4.52,3.25,9.57,3.25,15.15v80.21h6.42v-80.21c0-6.48-1.26-12.36-3.79-17.65
		c-2.52-5.29-5.96-9.67-10.29-13.15c-4.34-3.48-9.42-6.16-15.24-8.07c-5.71-1.86-11.8-2.81-18.25-2.85v6.41
		C1199.67,398.34,1199.61,398.34,1199.55,398.35z"/>
	<path class="st8" d="M1199.36,379.09L1199.36,379.09c0.06,0.01,0.12,0,0.19,0C1199.48,379.09,1199.42,379.09,1199.36,379.09z"/>
	<path class="st8" d="M1255.33,411c-3.21-6.89-7.56-12.66-13.06-17.29c-5.49-4.63-11.94-8.23-19.34-10.78
		c-7.29-2.52-15.02-3.79-23.2-3.83v6.41c-0.06,0-0.12,0-0.19,0c9.97,0.02,19.01,1.91,27.13,5.66c8.17,3.77,14.72,9.36,19.65,16.76
		c4.93,7.4,7.4,15.97,7.4,25.71v80.21h6.42v-80.21C1260.14,425.44,1258.54,417.89,1255.33,411z"/>
	<path class="st8" d="M1199.55,411.18c8.41,0.03,15.26,1.88,20.54,5.57c5.32,3.71,7.98,9.34,7.98,16.89v80.21h6.42v-80.21
		c0-6.24-1.6-11.59-4.81-16.04c-3.21-4.46-7.41-7.71-12.61-9.76c-5.1-2.01-10.87-3.03-17.32-3.07v6.41
		C1199.67,411.18,1199.61,411.18,1199.55,411.18z"/>
	<path class="st8" d="M1199.55,424.01c1.94,0,3.57,0.05,4.89,0.13c1.37,0.09,2.78,0.33,4.23,0.71c1.46,0.39,2.63,0.91,3.52,1.56
		c0.89,0.65,1.62,1.59,2.18,2.81c0.57,1.22,0.85,2.69,0.85,4.41v80.21h6.42v-80.21c0-10.6-7.31-15.95-21.91-16.04v6.41
		C1199.67,424.01,1199.61,424.01,1199.55,424.01z"/>
	<path class="st8" d="M1199.55,411.18c0.06,0,0.12,0,0.19,0v-6.41c-0.06,0-0.12,0-0.19,0c-0.06,0-0.12,0-0.19,0v6.41
		C1199.42,411.18,1199.48,411.18,1199.55,411.18z"/>
	<path class="st8" d="M1199.73,379.1c-0.06,0-0.12,0-0.19,0c-0.06,0-0.12,0-0.19,0v6.41c0.06,0,0.12,0,0.19,0c0.06,0,0.12,0,0.19,0
		V379.1z"/>
	<path class="st8" d="M1199.55,424.01c0.06,0,0.12,0,0.19,0v-6.41c-0.06,0-0.12,0-0.19,0c-0.06,0-0.12,0-0.19,0v6.41
		C1199.42,424.01,1199.48,424.01,1199.55,424.01z"/>
	<path class="st8" d="M1199.55,398.35c0.06,0,0.12,0,0.19,0v-6.41c-0.06,0-0.12,0-0.19,0c-0.06,0-0.12,0-0.19,0v6.41
		C1199.42,398.34,1199.48,398.34,1199.55,398.35z"/>
</g>
<g>
	<g>
		<polygon class="st9" points="684.64,432.69 659.32,386.25 652.82,386.25 681.34,439.73 		"/>
		<polygon class="st9" points="691.05,418.69 672.25,386.25 665.83,386.25 687.84,425.73 		"/>
		<polygon class="st9" points="633.48,386.25 627.06,386.25 668.4,467.9 671.5,461.36 		"/>
		<polygon class="st9" points="678.22,446.77 646.4,386.25 639.98,386.25 675.01,453.81 		"/>
		<polygon class="st9" points="736.15,386.25 695.78,471.28 695.78,514.59 702.19,514.59 702.19,471.28 742.57,386.25 		"/>
		<polygon class="st9" points="748.98,386.25 708.61,471.28 708.61,514.59 715.03,514.59 715.03,471.28 755.4,386.25 		"/>
		<polygon class="st9" points="723.32,386.25 682.94,471.28 682.94,514.59 689.36,514.59 689.36,471.28 729.73,386.25 		"/>
		<polygon class="st9" points="710.48,386.25 681.91,446.47 681.92,446.48 670.11,471.41 670.11,514.59 676.52,514.59 
			676.52,471.28 716.9,386.25 		"/>
	</g>
</g>
</svg>
